<svg width="270" height="270" viewBox="0 0 270 270" fill="none" xmlns="http://www.w3.org/2000/svg">
<rect width="270" height="270" rx="135" fill="black"/>
<g clip-path="url(#clip0_0_3)">
<path d="M157.25 79.25C181.803 79.25 201.75 99.1971 201.75 123.75C201.75 148.303 181.803 168.25 157.25 168.25H112.75C105.844 168.252 99.0335 169.863 92.8587 172.955C86.684 176.048 81.315 180.537 77.1778 186.067C74.4115 183.991 72.1652 181.301 70.6159 178.21C69.0666 175.118 68.2567 171.708 68.25 168.25V112.625C68.25 94.2187 83.2409 79.25 101.625 79.25H157.25ZM157.25 57H101.625C70.9033 57 46 81.9033 46 112.625V168.25C46 192.825 65.9471 212.75 90.5 212.75C90.5 206.849 92.8442 201.19 97.0169 197.017C101.19 192.844 106.849 190.5 112.75 190.5H157.25C194.124 190.5 224 160.602 224 123.75C224 86.8984 194.124 57 157.25 57Z" fill="#959DAA"/>
</g>
<defs>
<clipPath id="clip0_0_3">
<rect width="178" height="155.75" fill="white" transform="translate(46 57)"/>
</clipPath>
</defs>
</svg>
