<svg width="955" height="192" viewBox="0 0 955 192" fill="none" xmlns="http://www.w3.org/2000/svg">
<path d="M247.912 141.896C241.939 141.896 236.563 140.872 231.784 138.824C227.005 136.691 223.251 133.704 220.52 129.864C217.789 126.024 216.424 121.544 216.424 116.424H232.04C232.381 120.264 233.875 123.421 236.52 125.896C239.251 128.371 243.048 129.608 247.912 129.608C252.947 129.608 256.872 128.413 259.688 126.024C262.504 123.549 263.912 120.392 263.912 116.552C263.912 113.565 263.016 111.133 261.224 109.256C259.517 107.379 257.341 105.928 254.696 104.904C252.136 103.88 248.552 102.771 243.944 101.576C238.141 100.04 233.405 98.504 229.736 96.968C226.152 95.3467 223.08 92.872 220.52 89.544C217.96 86.216 216.68 81.7787 216.68 76.232C216.68 71.112 217.96 66.632 220.52 62.792C223.08 58.952 226.664 56.008 231.272 53.96C235.88 51.912 241.213 50.888 247.272 50.888C255.891 50.888 262.931 53.064 268.392 57.416C273.939 61.6827 277.011 67.5707 277.608 75.08H261.48C261.224 71.8373 259.688 69.064 256.872 66.76C254.056 64.456 250.344 63.304 245.736 63.304C241.555 63.304 238.141 64.3707 235.496 66.504C232.851 68.6373 231.528 71.7093 231.528 75.72C231.528 78.4507 232.339 80.712 233.96 82.504C235.667 84.2107 237.8 85.576 240.36 86.6C242.92 87.624 246.419 88.7333 250.856 89.928C256.744 91.5493 261.523 93.1707 265.192 94.792C268.947 96.4133 272.104 98.9307 274.664 102.344C277.309 105.672 278.632 110.152 278.632 115.784C278.632 120.307 277.395 124.573 274.92 128.584C272.531 132.595 268.989 135.837 264.296 138.312C259.688 140.701 254.227 141.896 247.912 141.896ZM321.962 80.84C324.437 77.5973 327.807 74.8667 332.074 72.648C336.341 70.4293 341.162 69.32 346.538 69.32C352.682 69.32 358.271 70.856 363.306 73.928C368.426 76.9147 372.437 81.1387 375.338 86.6C378.239 92.0613 379.69 98.3333 379.69 105.416C379.69 112.499 378.239 118.856 375.338 124.488C372.437 130.035 368.426 134.387 363.306 137.544C358.271 140.616 352.682 142.152 346.538 142.152C341.162 142.152 336.383 141.085 332.202 138.952C328.021 136.733 324.607 134.003 321.962 130.76V174.536H307.37V70.472H321.962V80.84ZM364.842 105.416C364.842 100.552 363.818 96.3707 361.77 92.872C359.807 89.288 357.162 86.6 353.834 84.808C350.591 82.9307 347.093 81.992 343.338 81.992C339.669 81.992 336.17 82.9307 332.842 84.808C329.599 86.6853 326.954 89.416 324.906 93C322.943 96.584 321.962 100.808 321.962 105.672C321.962 110.536 322.943 114.803 324.906 118.472C326.954 122.056 329.599 124.787 332.842 126.664C336.17 128.541 339.669 129.48 343.338 129.48C347.093 129.48 350.591 128.541 353.834 126.664C357.162 124.701 359.807 121.885 361.77 118.216C363.818 114.547 364.842 110.28 364.842 105.416ZM436.232 142.152C429.576 142.152 423.56 140.659 418.184 137.672C412.808 134.6 408.584 130.333 405.512 124.872C402.44 119.325 400.904 112.925 400.904 105.672C400.904 98.504 402.483 92.1467 405.64 86.6C408.797 81.0533 413.107 76.7867 418.568 73.8C424.029 70.8133 430.131 69.32 436.872 69.32C443.613 69.32 449.715 70.8133 455.176 73.8C460.637 76.7867 464.947 81.0533 468.104 86.6C471.261 92.1467 472.84 98.504 472.84 105.672C472.84 112.84 471.219 119.197 467.976 124.744C464.733 130.291 460.296 134.6 454.664 137.672C449.117 140.659 442.973 142.152 436.232 142.152ZM436.232 129.48C439.987 129.48 443.485 128.584 446.728 126.792C450.056 125 452.744 122.312 454.792 118.728C456.84 115.144 457.864 110.792 457.864 105.672C457.864 100.552 456.883 96.2427 454.92 92.744C452.957 89.16 450.355 86.472 447.112 84.68C443.869 82.888 440.371 81.992 436.616 81.992C432.861 81.992 429.363 82.888 426.12 84.68C422.963 86.472 420.445 89.16 418.568 92.744C416.691 96.2427 415.752 100.552 415.752 105.672C415.752 113.267 417.672 119.155 421.512 123.336C425.437 127.432 430.344 129.48 436.232 129.48ZM515.809 82.376V121.416C515.809 124.061 516.406 125.981 517.601 127.176C518.881 128.285 521.014 128.84 524.001 128.84H532.961V141H521.441C514.87 141 509.836 139.464 506.337 136.392C502.838 133.32 501.089 128.328 501.089 121.416V82.376H492.769V70.472H501.089V52.936H515.809V70.472H532.961V82.376H515.809ZM610.282 52.04V63.944H572.522V90.184H601.962V102.088H572.522V141H557.93V52.04H610.282ZM665.917 142.152C659.261 142.152 653.245 140.659 647.869 137.672C642.493 134.6 638.269 130.333 635.197 124.872C632.125 119.325 630.589 112.925 630.589 105.672C630.589 98.504 632.168 92.1467 635.325 86.6C638.482 81.0533 642.792 76.7867 648.253 73.8C653.714 70.8133 659.816 69.32 666.557 69.32C673.298 69.32 679.4 70.8133 684.861 73.8C690.322 76.7867 694.632 81.0533 697.789 86.6C700.946 92.1467 702.525 98.504 702.525 105.672C702.525 112.84 700.904 119.197 697.661 124.744C694.418 130.291 689.981 134.6 684.349 137.672C678.802 140.659 672.658 142.152 665.917 142.152ZM665.917 129.48C669.672 129.48 673.17 128.584 676.413 126.792C679.741 125 682.429 122.312 684.477 118.728C686.525 115.144 687.549 110.792 687.549 105.672C687.549 100.552 686.568 96.2427 684.605 92.744C682.642 89.16 680.04 86.472 676.797 84.68C673.554 82.888 670.056 81.992 666.301 81.992C662.546 81.992 659.048 82.888 655.805 84.68C652.648 86.472 650.13 89.16 648.253 92.744C646.376 96.2427 645.437 100.552 645.437 105.672C645.437 113.267 647.357 119.155 651.197 123.336C655.122 127.432 660.029 129.48 665.917 129.48ZM743.062 80.712C745.195 77.128 748.011 74.3547 751.51 72.392C755.094 70.344 759.318 69.32 764.182 69.32V84.424H760.47C754.753 84.424 750.401 85.8747 747.414 88.776C744.513 91.6773 743.062 96.712 743.062 103.88V141H728.47V70.472H743.062V80.712ZM874.491 69.32C880.038 69.32 884.987 70.472 889.339 72.776C893.776 75.08 897.232 78.4933 899.707 83.016C902.267 87.5387 903.547 93 903.547 99.4V141H889.083V101.576C889.083 95.2613 887.504 90.44 884.347 87.112C881.19 83.6987 876.88 81.992 871.419 81.992C865.958 81.992 861.606 83.6987 858.363 87.112C855.206 90.44 853.627 95.2613 853.627 101.576V141H839.163V101.576C839.163 95.2613 837.584 90.44 834.427 87.112C831.27 83.6987 826.96 81.992 821.499 81.992C816.038 81.992 811.686 83.6987 808.443 87.112C805.286 90.44 803.707 95.2613 803.707 101.576V141H789.115V70.472H803.707V78.536C806.096 75.6347 809.126 73.3733 812.795 71.752C816.464 70.1307 820.39 69.32 824.571 69.32C830.203 69.32 835.238 70.5147 839.675 72.904C844.112 75.2933 847.526 78.7493 849.915 83.272C852.048 79.0053 855.376 75.6347 859.899 73.16C864.422 70.6 869.286 69.32 874.491 69.32ZM939.523 141.896C936.878 141.896 934.659 141 932.867 139.208C931.075 137.416 930.179 135.197 930.179 132.552C930.179 129.907 931.075 127.688 932.867 125.896C934.659 124.104 936.878 123.208 939.523 123.208C942.083 123.208 944.259 124.104 946.051 125.896C947.843 127.688 948.739 129.907 948.739 132.552C948.739 135.197 947.843 137.416 946.051 139.208C944.259 141 942.083 141.896 939.523 141.896Z" fill="#959DAA"/>
<g clip-path="url(#clip0_5_7)">
<path d="M94.375 48.875C115.204 48.875 132.125 65.7964 132.125 86.625C132.125 107.454 115.204 124.375 94.375 124.375H56.625C50.7666 124.376 44.9891 125.743 39.7509 128.366C34.5128 130.99 29.9582 134.798 26.4486 139.489C24.1019 137.728 22.1963 135.447 20.882 132.824C19.5677 130.201 18.8807 127.309 18.875 124.375V77.1875C18.875 61.5732 31.592 48.875 47.1875 48.875H94.375ZM94.375 30H47.1875C21.1258 30 0 51.1258 0 77.1875V124.375C0 145.222 16.9214 162.125 37.75 162.125C37.75 157.119 39.7386 152.318 43.2784 148.778C46.8181 145.239 51.619 143.25 56.625 143.25H94.375C125.656 143.25 151 117.887 151 86.625C151 55.3633 125.656 30 94.375 30Z" fill="#959DAA"/>
</g>
<defs>
<clipPath id="clip0_5_7">
<rect width="151" height="132.125" fill="white" transform="translate(0 30)"/>
</clipPath>
</defs>
</svg>
